<svg width="56" height="56" viewBox="0 0 56 56" fill="none" xmlns="http://www.w3.org/2000/svg">
<path d="M36 39C36 38.0681 36 37.6022 36.1522 37.2346C36.3552 36.7446 36.7446 36.3552 37.2346 36.1522C37.6022 36 38.0681 36 39 36C39.9319 36 40.3978 36 40.7654 36.1522C41.2554 36.3552 41.6448 36.7446 41.8478 37.2346C42 37.6022 42 38.0681 42 39C42 39.9319 42 40.3978 41.8478 40.7654C41.6448 41.2554 41.2554 41.6448 40.7654 41.8478C40.3978 42 39.9319 42 39 42C38.0681 42 37.6022 42 37.2346 41.8478C36.7446 41.6448 36.3552 41.2554 36.1522 40.7654C36 40.3978 36 39.9319 36 39Z" fill="black"/>
<path fill-rule="evenodd" clip-rule="evenodd" d="M6 25.2C6 18.4794 6 15.1191 7.30792 12.5521C8.4584 10.2942 10.2942 8.4584 12.5521 7.30792C13.7666 6.68913 15.1586 6.3631 17 6.19131V3.5C17 2.67157 17.6716 2 18.5 2C19.3284 2 20 2.67157 20 3.5V6.03506C21.4782 6 23.1886 6 25.2 6H30.8C32.8114 6 34.5218 6 36 6.03506V3.5C36 2.67157 36.6716 2 37.5 2C38.3284 2 39 2.67157 39 3.5V6.19131C40.8414 6.3631 42.2334 6.68913 43.4479 7.30792C45.7058 8.4584 47.5416 10.2942 48.6921 12.5521C50 15.1191 50 18.4794 50 25.2V30.8C50 37.5206 50 40.8809 48.6921 43.4479C47.5416 45.7058 45.7058 47.5416 43.4479 48.6921C40.8809 50 37.5206 50 30.8 50H25.2C18.4794 50 15.1191 50 12.5521 48.6921C10.2942 47.5416 8.4584 45.7058 7.30792 43.4479C6 40.8809 6 37.5206 6 30.8V25.2ZM30.8 9H25.2C23.1209 9 21.4259 9.00087 20 9.03582V12.5C20 13.3284 19.3284 14 18.5 14C17.6716 14 17 13.3284 17 12.5V9.20616C15.5245 9.36316 14.6187 9.62193 13.9141 9.98094C12.2206 10.8438 10.8438 12.2206 9.98094 13.9141C9.57838 14.7042 9.30186 15.7472 9.15353 17.5627C9.09452 18.2849 9.05819 19.0873 9.03582 20H46.9642C46.9418 19.0873 46.9055 18.2849 46.8465 17.5627C46.6981 15.7472 46.4216 14.7042 46.0191 13.9141C45.1562 12.2206 43.7794 10.8438 42.0859 9.98094C41.3813 9.62193 40.4755 9.36316 39 9.20616V12.5C39 13.3284 38.3284 14 37.5 14C36.6716 14 36 13.3284 36 12.5V9.03582C34.5741 9.00087 32.8791 9 30.8 9ZM9 25.2V30.8C9 34.2098 9.00233 36.5868 9.15353 38.4373C9.30186 40.2528 9.57838 41.2958 9.98094 42.0859C10.8438 43.7794 12.2206 45.1562 13.9141 46.0191C14.7042 46.4216 15.7472 46.6981 17.5627 46.8465C19.4132 46.9977 21.7902 47 25.2 47H30.8C34.2098 47 36.5868 46.9977 38.4373 46.8465C40.2528 46.6981 41.2958 46.4216 42.0859 46.0191C43.7794 45.1562 45.1562 43.7794 46.0191 42.0859C46.4216 41.2958 46.6981 40.2528 46.8465 38.4373C46.9977 36.5868 47 34.2098 47 30.8V25.2C47 24.4138 46.9999 23.6826 46.9978 23H9.00217C9.00012 23.6826 9 24.4138 9 25.2Z" fill="black"/>
</svg>
