<svg width="24" height="24" viewBox="0 0 24 24" fill="none" xmlns="http://www.w3.org/2000/svg">
<path d="M17 13.5C20.6885 13.5 23.9 14.8092 23.9 17.7571C23.9 19.3112 23.2563 20 21.9412 20L16.3453 20C15.8021 20 15.4184 19.449 15.5256 18.9165C15.6009 18.5429 15.9145 18.2 16.2956 18.2001C18.5549 18.2004 22.078 18.202 22.078 18.202C22.078 18.202 22.1 17.9052 22.1 17.7571C22.1 16.2449 19.7821 15.3 17 15.3C16.5279 15.3 16.0692 15.3272 15.633 15.3798C15.2977 15.4202 14.9732 15.2608 14.7833 14.9816C14.4323 14.4658 14.6172 13.6856 15.2362 13.6071C15.8031 13.5352 16.3951 13.5 17 13.5ZM7.00001 13.5C10.6885 13.5 13.9 14.8092 13.9 17.7571C13.9 19.3112 13.2563 20 11.9412 20H2.05883C0.743715 20 0.100006 19.3112 0.100006 17.7571C0.100006 14.8092 3.31156 13.5 7.00001 13.5ZM7.00001 15.3C4.21787 15.3 1.90001 16.2449 1.90001 17.7571C1.90001 17.9059 1.92001 18.202 1.92001 18.202H12.078C12.078 18.202 12.1 17.9052 12.1 17.7571C12.1 16.2449 9.78214 15.3 7.00001 15.3ZM17 4.20001C19.2927 4.20001 21.15 6.05733 21.15 8.35001C21.15 10.6427 19.2927 12.5 17 12.5C14.7073 12.5 12.85 10.6427 12.85 8.35001C12.85 6.05733 14.7073 4.20001 17 4.20001ZM7.00001 4.20001C9.29269 4.20001 11.15 6.05733 11.15 8.35001C11.15 10.6427 9.29269 12.5 7.00001 12.5C4.70732 12.5 2.85001 10.6427 2.85001 8.35001C2.85001 6.05733 4.70732 4.20001 7.00001 4.20001ZM17 6.00001C15.7014 6.00001 14.65 7.05144 14.65 8.35001C14.65 9.64858 15.7014 10.7 17 10.7C18.2986 10.7 19.35 9.64858 19.35 8.35001C19.35 7.05144 18.2986 6.00001 17 6.00001ZM7.00001 6.00001C5.70144 6.00001 4.65001 7.05144 4.65001 8.35001C4.65001 9.64858 5.70144 10.7 7.00001 10.7C8.29857 10.7 9.35001 9.64858 9.35001 8.35001C9.35001 7.05144 8.29857 6.00001 7.00001 6.00001Z" fill="#2688EB"/>
</svg>
