<svg width="56" height="56" viewBox="0 0 56 56" fill="none" xmlns="http://www.w3.org/2000/svg">
    <path d="M39.5607 6.94413C41.8813 9.26474 41.7626 12.7544 39.4675 15.5243C39.024 16.0597 38.5141 16.5546 37.944 17.0049L42 17.0048C46.4183 17.0048 50 20.5865 50 25.0048V25.8637C50 27.8776 49.7215 28.9575 49.1986 29.9353C48.6757 30.9131 47.9083 31.6805 46.9305 32.2034C46.6374 32.3601 46.3352 32.4949 46.0013 32.6068L46 38.7492L45.9947 39.4554C45.9472 42.4937 45.5806 43.6984 44.9315 44.9122C44.2342 46.2159 43.2111 47.239 41.9074 47.9363L41.6371 48.0758C40.4598 48.6605 39.1644 48.9806 36.1054 49.0035L29.5 49.0029V49.0048H20.2555C16.6895 49.0048 15.3963 48.6335 14.0926 47.9363C12.7889 47.239 11.7658 46.2159 11.0685 44.9122L10.9289 44.6418C10.3443 43.4646 10.0242 42.1692 10.0013 39.1101L9.99971 32.6072C9.66545 32.4952 9.36285 32.3603 9.06946 32.2034C8.09168 31.6805 7.32432 30.9131 6.8014 29.9353C6.27848 28.9575 6 27.8776 6 25.8637V25.0048C6 20.5865 9.58172 17.0048 14 17.0048L18.0518 17.0049C17.4818 16.5546 16.9719 16.0597 16.5283 15.5243C14.2333 12.7544 14.1146 9.26474 16.4352 6.94413C18.7558 4.62352 22.2455 4.74221 25.0154 7.03726C26.2369 8.04931 27.2479 9.4065 27.9985 11.0365C28.748 9.4065 29.759 8.04931 30.9805 7.03726C33.7504 4.74221 37.24 4.62352 39.5607 6.94413ZM26.5 33.0039L13 33.0048L13.0008 39.0641L13.0077 39.6474C13.044 41.5854 13.2133 42.4657 13.5981 43.2691L13.714 43.4974C14.1316 44.2783 14.7265 44.8732 15.5074 45.2908C16.457 45.7987 17.3831 45.99 19.9407 46.004L26.5 46.0039V33.0039ZM43 33.0048L29.5 33.0039V46.0039L36.0593 46.004C38.6169 45.99 39.543 45.7987 40.4926 45.2908C41.2735 44.8732 41.8684 44.2783 42.286 43.4974L42.4019 43.2691C42.8417 42.3509 43 41.3324 43 38.7492V33.0048ZM26.5 20.0039L14 20.0048C11.2386 20.0048 9 22.2434 9 25.0048L9.0016 26.1226C9.0176 27.3729 9.15479 27.9745 9.44684 28.5205C9.69016 28.9755 10.0293 29.3146 10.4843 29.558C11.0303 29.85 11.6319 29.9872 12.8822 30.0032L26.5 30.0029V20.0039ZM42 20.0048L29.5 20.0039V30.0029L43.1178 30.0032C44.3681 29.9872 44.9697 29.85 45.5157 29.558C45.9707 29.3146 46.3098 28.9755 46.5532 28.5205C46.8647 27.9381 47 27.2925 47 25.8637V25.0048C47 22.2434 44.7614 20.0048 42 20.0048ZM29.5995 16.6178L29.5683 16.9365L29.887 16.9052C36.6338 16.1778 40.0107 11.6368 37.4393 9.06545C34.868 6.49409 30.327 9.87101 29.5995 16.6178ZM26.3963 16.6178C25.6688 9.87101 21.1279 6.49409 18.5565 9.06545C15.9852 11.6368 19.3621 16.1778 26.1089 16.9052L26.4276 16.9365L26.3963 16.6178Z"
          fill="black"/>
</svg>
