<svg width="574" height="100" viewBox="0 0 574 100" fill="none" xmlns="http://www.w3.org/2000/svg">
<path d="M173.822 62.0419C173.822 69.6335 166.754 75.1309 156.806 75.1309H133.508V28.0105H156.021C165.707 28.0105 172.513 33.2461 172.513 40.576C172.513 45.5498 169.895 48.6911 165.969 50.5236C170.157 52.0943 173.822 56.2828 173.822 62.0419ZM143.717 36.6493V46.8587H155.759C159.424 46.8587 161.78 44.7644 161.78 41.8849C161.78 39.0053 159.162 36.6493 155.759 36.6493H143.717ZM156.806 66.4922C160.733 66.4922 163.613 64.1362 163.613 60.733C163.613 57.3299 160.995 54.9739 156.806 54.9739H143.717V66.4922H156.806Z" fill="black"/>
<path d="M212.304 74.8691L196.074 56.2828H193.456V74.8691H182.984V28.0105H193.456V46.0733H196.074L211.78 28.0105H224.084L204.45 50.5236L225.916 74.8691H212.304Z" fill="black"/>
<path d="M225.917 51.5709C225.917 37.4348 236.388 27.2253 251.047 27.2253C265.707 27.2253 276.178 37.4348 276.178 51.5709C276.178 65.707 265.707 75.9164 251.047 75.9164C236.388 75.9164 225.917 65.707 225.917 51.5709ZM265.184 51.5709C265.184 42.6704 259.424 36.6494 251.047 36.6494C242.67 36.6494 236.911 42.6704 236.911 51.5709C236.911 60.4714 242.67 66.4924 251.047 66.4924C259.424 66.4924 265.184 60.4714 265.184 51.5709Z" fill="black"/>
<path d="M316.231 28.0105H326.702V74.8691H316.231V56.021H295.288V74.8691H284.817V28.0105H295.288V46.5969H316.231V28.0105Z" fill="black"/>
<path d="M349.215 74.8691V37.4346H332.984V28.0105H375.655V37.4346H359.424V74.8691H349.215Z" fill="black"/>
<path d="M420.681 48.6913V74.8693H413.089L410.995 67.5395C408.639 71.4662 403.665 75.9164 396.073 75.9164C386.649 75.9164 379.843 69.6337 379.843 60.995C379.843 52.3562 386.649 46.3353 400.524 46.3353H410.733C410.21 40.3143 407.068 36.1259 401.309 36.1259C396.597 36.1259 393.456 38.7437 391.885 41.6232L382.461 40.0526C384.817 31.9374 392.932 27.2253 401.833 27.2253C413.351 27.2253 420.681 35.0787 420.681 48.6913ZM410.471 54.4505H400.785C392.932 54.4505 390.314 57.0683 390.314 60.4714C390.314 64.3981 393.456 67.0159 398.691 67.0159C405.498 67.0159 410.471 62.0421 410.471 54.4505Z" fill="black"/>
<path d="M460.995 74.8691L444.765 56.2828H442.147V74.8691H431.676V28.0105H442.147V46.0733H444.765L460.471 28.0105H472.775L453.141 50.5236L474.607 74.8691H460.995Z" fill="black"/>
<path d="M493.456 74.8691V37.4346H477.225V28.0105H519.896V37.4346H503.665V74.8691H493.456Z" fill="black"/>
<path d="M572.251 54.4505H534.555C535.602 61.7803 540.838 66.4924 548.691 66.4924C554.189 66.4924 558.377 64.1363 560.733 60.7332L570.419 62.3039C567.016 71.2044 557.853 75.9164 547.906 75.9164C533.77 75.9164 523.56 65.707 523.56 51.5709C523.56 37.4348 533.77 27.2253 547.906 27.2253C562.042 27.2253 572.251 37.4348 572.251 51.0473C572.513 52.3562 572.251 53.4034 572.251 54.4505ZM535.34 46.3353H561.257C559.424 40.5761 554.712 36.3876 548.168 36.3876C541.885 36.1259 536.911 40.3143 535.34 46.3353Z" fill="black"/>
<path d="M0 48C0 25.3726 0 14.0589 7.02944 7.02944C14.0589 0 25.3726 0 48 0H52C74.6274 0 85.9411 0 92.9706 7.02944C100 14.0589 100 25.3726 100 48V52C100 74.6274 100 85.9411 92.9706 92.9706C85.9411 100 74.6274 100 52 100H48C25.3726 100 14.0589 100 7.02944 92.9706C0 85.9411 0 74.6274 0 52V48Z" fill="#0077FF"/>
<path d="M53.2083 72.042C30.4167 72.042 17.4168 56.417 16.8751 30.417H28.2917C28.6667 49.5003 37.0833 57.5836 43.7499 59.2503V30.417H54.5002V46.8752C61.0836 46.1669 67.9994 38.667 70.3328 30.417H81.0831C79.2914 40.5837 71.7914 48.0836 66.458 51.1669C71.7914 53.6669 80.3335 60.2086 83.5835 72.042H71.7498C69.2081 64.1253 62.8752 58.0003 54.5002 57.1669V72.042H53.2083Z" fill="white"/>
</svg>
