<svg width="24" height="24" viewBox="0 0 24 24" fill="none" xmlns="http://www.w3.org/2000/svg">
<path fill-rule="evenodd" clip-rule="evenodd" d="M12.0158 4.90001C7.41653 4.90001 3.93156 8.07206 3.93156 11.7068C3.93156 13.0128 4.36917 14.2386 5.14163 15.278C5.25698 15.4332 5.31928 15.6214 5.31928 15.8148C5.31928 17.1945 4.77957 18.4986 4.22032 19.7354C5.93372 19.5412 7.05526 18.9848 7.733 18.1879C7.97883 17.8989 8.37951 17.7951 8.73476 17.9284C9.73473 18.3036 10.8443 18.5136 12.0158 18.5136C16.615 18.5136 20.1 15.3415 20.1 11.7068C20.1 8.07206 16.615 4.90001 12.0158 4.90001ZM2.13156 11.7068C2.13156 6.82884 6.69133 3.10001 12.0158 3.10001C17.3402 3.10001 21.9 6.82884 21.9 11.7068C21.9 16.5848 17.3402 20.3136 12.0158 20.3136C10.8433 20.3136 9.71575 20.1359 8.66827 19.8081C7.42019 20.9611 5.6159 21.5128 3.42014 21.599C2.49321 21.6354 1.82171 20.6718 2.21111 19.8066C2.73964 18.6242 3.40832 17.4038 3.50864 16.0878C2.63779 14.8157 2.13156 13.3152 2.13156 11.7068Z" fill="#2688EB"/>
</svg>
