<svg width="56" height="56" viewBox="0 0 56 56" fill="none" xmlns="http://www.w3.org/2000/svg">
<path fill-rule="evenodd" clip-rule="evenodd" d="M28.5376 6.46905C28.1664 6.41608 27.8336 6.41608 27.4624 6.46905C27.0917 6.52194 26.7556 6.59595 25.482 7.02049L11.8419 11.5672C11.6377 11.6353 11.5 11.8263 11.5 12.0415V30.6C11.5 34.7248 12.7574 38.317 15.2761 41.4377C17.8146 44.5831 21.6914 47.3175 27.022 49.5834C27.647 49.849 28.3531 49.849 28.978 49.5834C34.3086 47.3175 38.1854 44.5831 40.7239 41.4377C43.2426 38.3169 44.5 34.7248 44.5 30.6V12.0415C44.5 11.8263 44.3623 11.6353 44.1581 11.5672L30.518 7.02049C29.2444 6.59595 28.9083 6.52194 28.5376 6.46905ZM27.0386 3.49913C27.691 3.40605 28.309 3.40605 28.9614 3.49913C29.6142 3.59228 30.1641 3.74025 31.4667 4.17444L45.1068 8.72115C46.536 9.19755 47.5 10.535 47.5 12.0415V30.6C47.5 35.3937 46.0182 39.6547 43.0585 43.3219C40.1186 46.9644 35.7778 49.9527 30.1516 52.3443C28.7767 52.9287 27.2233 52.9287 25.8484 52.3443C20.2222 49.9527 15.8814 46.9644 12.9415 43.3219C9.98185 39.6547 8.5 35.3937 8.5 30.6V12.0415C8.5 10.535 9.46401 9.19755 10.8932 8.72115L24.5333 4.17444C25.8359 3.74025 26.3858 3.59228 27.0386 3.49913ZM38.4607 21.3394C39.0464 21.9251 39.0464 22.8749 38.4607 23.4607L26.4607 35.4607C26.1794 35.742 25.7978 35.9 25.4 35.9C25.0022 35.9 24.6206 35.742 24.3393 35.4607L17.8393 28.9607C17.2536 28.3749 17.2536 27.4251 17.8393 26.8394C18.4251 26.2536 19.3749 26.2536 19.9607 26.8394L25.4 32.2787L36.3393 21.3394C36.9251 20.7536 37.8749 20.7536 38.4607 21.3394Z" fill="black"/>
</svg>
