<svg width="56" height="56" viewBox="0 0 56 56" fill="none" xmlns="http://www.w3.org/2000/svg">
<path fill-rule="evenodd" clip-rule="evenodd" d="M15.0358 8H15.1H32.9H32.9642H32.9643C34.5899 7.99999 35.9011 7.99998 36.9629 8.08673C38.0562 8.17605 39.0165 8.36477 39.9049 8.81745C41.3161 9.5365 42.4635 10.6839 43.1825 12.0951C43.6352 12.9835 43.8239 13.9438 43.9133 15.0371C43.9386 15.3466 43.9565 15.6773 43.9692 16.0308C44.3227 16.0435 44.6534 16.0614 44.9629 16.0867C46.0562 16.1761 47.0165 16.3648 47.9049 16.8175C49.3161 17.5365 50.4635 18.6839 51.1825 20.0951C51.6352 20.9835 51.8239 21.9438 51.9133 23.0371C52 24.0989 52 25.4101 52 27.0358V27.1V36.9V36.9642C52 38.5899 52 39.9011 51.9133 40.9629C51.8239 42.0562 51.6352 43.0165 51.1825 43.9049C50.4635 45.3161 49.3161 46.4635 47.9049 47.1825C47.0165 47.6352 46.0562 47.824 44.9629 47.9133C43.9011 48 42.5899 48 40.9642 48H40.9H33.0755H32.9642H32.9H15.1H15.0358C13.4101 48 12.0989 48 11.0371 47.9133C9.94379 47.8239 8.98351 47.6352 8.09507 47.1825C6.68386 46.4635 5.5365 45.3161 4.81745 43.9049C4.36477 43.0165 4.17605 42.0562 4.08673 40.9629C3.99997 39.9011 3.99999 38.5899 4 36.9642V36.9V19.1V19.0358V18.9276V17.5V16H4.03195C4.04457 15.6581 4.06218 15.3376 4.08673 15.0371C4.17605 13.9438 4.36477 12.9835 4.81745 12.0951C5.5365 10.6839 6.68386 9.5365 8.09507 8.81745C8.98351 8.36477 9.94379 8.17605 11.0371 8.08673C12.0989 7.99998 13.4101 7.99999 15.0358 8H15.0358ZM40.9232 15.2814C40.9415 15.5044 40.9554 15.7428 40.966 16H40.9642L40.9 16H7.03404C7.04464 15.7428 7.05854 15.5044 7.07677 15.2814C7.15093 14.3736 7.28919 13.8521 7.49047 13.457C7.9219 12.6103 8.61032 11.9219 9.45704 11.4905C9.85208 11.2892 10.3736 11.1509 11.2814 11.0768C12.2066 11.0012 13.3951 11 15.1 11H32.9C34.6049 11 35.7934 11.0012 36.7186 11.0768C37.6264 11.1509 38.1479 11.2892 38.543 11.4905C39.3897 11.9219 40.0781 12.6103 40.5095 13.457C40.7108 13.8521 40.8491 14.3736 40.9232 15.2814ZM7 19V19.1V36.9C7 38.6049 7.00117 39.7934 7.07677 40.7186C7.15093 41.6264 7.28919 42.1479 7.49047 42.543C7.9219 43.3897 8.61032 44.0781 9.45704 44.5095C9.82739 44.6982 10.3089 44.8315 11.1156 44.9086C11.1694 44.9137 11.2246 44.9186 11.2814 44.9232C12.1488 44.9941 13.2476 44.9996 14.7863 45L15.1 45H32.9C34.6049 45 35.7934 44.9988 36.7186 44.9232L42.5026 44.9965C43.4 44.9902 44.1153 44.9725 44.7186 44.9232C45.6264 44.8491 46.1479 44.7108 46.543 44.5095C47.3897 44.0781 48.0781 43.3897 48.5095 42.543C48.7108 42.1479 48.8491 41.6264 48.9232 40.7186C48.9988 39.7934 49 38.6049 49 36.9V27.1C49 25.3951 48.9988 24.2066 48.9232 23.2814C48.8491 22.3736 48.7108 21.8521 48.5095 21.457C48.0781 20.6103 47.3897 19.9219 46.543 19.4905C46.1479 19.2892 45.6264 19.1509 44.7186 19.0768C44.4956 19.0585 44.2572 19.0446 44 19.034V19.0358L41 19L40.9 19H7ZM38.5 30C37.6716 30 37 30.6716 37 31.5C37 32.3284 37.6716 33 38.5 33H42.5C43.3284 33 44 32.3284 44 31.5C44 30.6716 43.3284 30 42.5 30H38.5Z" fill="black"/>
</svg>
