<svg width="2508" height="720" viewBox="0 0 2508 720" fill="none" xmlns="http://www.w3.org/2000/svg">
    <g clip-path="url(#clip0)">
        <path fill-rule="evenodd" clip-rule="evenodd" d="M2228.4 580.8C2226 590.4 2214 595.2 2208 600C2200.8 606 2199.6 608.4 2191.2 612C2176.8 618 2163.6 622.8 2149.2 622.8C2131.2 624 2109.6 616.8 2095.2 603.6C2083.2 592.8 2076 576 2074.8 558C2073.6 531.6 2090.4 504 2108.4 484.8C2125.2 468 2149.2 456 2168.4 478.8C2182.8 495.6 2172 522 2162.4 535.2C2149.2 552 2130 555.6 2119.2 566.4C2098.8 586.8 2146.8 586.8 2162.4 585.6C2178 584.4 2193.6 580.8 2206.8 577.2C2215.2 574.8 2221.2 576 2229.6 571.2C2232 577.2 2230.8 579.6 2228.4 580.8ZM2114.4 535.2C2126.4 526.8 2138.4 516 2143.2 502.8C2130 508.8 2119.2 522 2114.4 535.2ZM2052 504C2050.8 506.4 2049.6 508.8 2047.2 510C2048.4 510 2049.6 511.2 2050.8 511.2C2043.6 520.8 2040 530.4 2034 540C2029.2 547.2 2013.6 560.4 2012.4 570C2011.2 580.8 2032.8 608.4 2024.4 616.8C2014.8 627.6 2002.8 603.6 2000.4 596.4C1990.8 596.4 1983.6 606 1978.8 610.8C1972.8 615.6 1965.6 620.4 1962 628.8C1950 619.2 1939.2 626.4 1940.4 608.4C1941.6 598.8 1957.2 579.6 1962 570C1965.6 562.8 1972.8 552 1974 543.6C1976.4 526.8 1963.2 508.8 1959.6 490.8C1957.2 478.8 1953.6 464.4 1965.6 477.6C1974 486 1972.8 504 1981.2 512.4C1992 523.2 1994.4 511.2 2002.8 500.4C2010 490.8 2014.8 483.6 2020.8 471.6C2025.6 462 2026.8 454.8 2037.6 457.2C2049.6 462 2056.8 492 2052 504ZM1910.4 637.2C1876.8 631.2 1874.4 602.4 1870.8 572.4C1869.6 561.6 1869.6 549.6 1868.4 538.8C1861.2 542.4 1851.6 571.2 1846.8 580.8C1842 591.6 1820.4 608.4 1826.4 621.6C1816.8 621.6 1806 618 1796.4 620.4C1794 604.8 1785.6 589.2 1784.4 572.4C1782 550.8 1785.6 532.8 1786.8 512.4C1788 502.8 1789.2 459.6 1806 471.6C1815.6 478.8 1814.4 501.6 1814.4 512.4C1814.4 524.4 1808.4 547.2 1813.2 559.2C1825.2 549.6 1838.4 538.8 1850.4 525.6C1855.2 520.8 1858.8 518.4 1861.2 513.6C1863.6 508.8 1862.4 489.6 1870.8 500.4C1882.8 499.2 1880.4 486 1892.4 488.4C1904.4 490.8 1906.8 511.2 1906.8 523.2C1908 543.6 1903.2 568.8 1904.4 591.6C1906.8 598.8 1916.4 632.4 1910.4 637.2ZM1778.4 254.4C1771.2 298.8 1758 346.8 1754.4 388.8C1749.6 447.6 1750.8 511.2 1749.6 572.4C1749.6 589.2 1746 600 1743.6 615.6C1742.4 624 1744.8 632.4 1741.2 639.6C1737.6 646.8 1731.6 644.4 1730.4 651.6C1702.8 639.6 1711.2 559.2 1712.4 535.2C1714.8 496.8 1714.8 458.4 1716 420C1716 391.2 1718.4 362.4 1722 337.2C1725.6 310.8 1730.4 284.4 1736.4 258C1738.8 247.2 1741.2 228 1747.2 217.2C1753.2 205.2 1754.4 207.6 1762.8 218.4C1768.8 225.6 1773.6 235.2 1776 243.6C1778.4 249.6 1778.4 250.8 1778.4 254.4ZM1563.6 591.6C1563.6 624 1515.6 626.4 1492.8 622.8C1464 616.8 1450.8 596.4 1447.2 571.2C1446 565.2 1447.2 555.6 1444.8 549.6C1442.4 542.4 1436.4 536.4 1435.2 529.2H1430.4C1434 510 1458 501.6 1471.2 487.2C1477.2 480 1485.6 469.2 1495.2 465.6C1536 448.8 1540.8 502.8 1528.8 524.4C1524 532.8 1516.8 540 1506 543.6C1498.8 546 1482 544.8 1478.4 552C1462.8 574.8 1507.2 579.6 1518 579.6C1531.2 579.6 1548 576 1563.6 573.6V591.6ZM1507.2 499.2C1507.2 498 1508.4 496.8 1507.2 499.2V499.2ZM1444.8 260.4C1435.2 292.8 1428 330 1424.4 362.4C1422 386.4 1420.8 410.4 1419.6 434.4C1417.2 465.6 1411.2 493.2 1407.6 522C1405.2 542.4 1410 561.6 1411.2 582C1411.2 594 1418.4 619.2 1408.8 627.6C1381.2 652.8 1386 552 1384.8 540C1384.8 537.6 1384.8 536.4 1383.6 532.8C1377.6 562.8 1363.2 607.2 1335.6 621.6C1318.8 631.2 1296 619.2 1290 600C1285.2 584.4 1282.8 565.2 1285.2 549.6C1287.6 525.6 1293.6 492 1305.6 470.4C1317.6 450 1327.2 450 1346.4 458.4C1352.4 460.8 1353.6 459.6 1357.2 464.4C1357.2 464.4 1357.2 462 1358.4 462C1370.4 470.4 1365.6 482.4 1357.2 489.6C1352.4 494.4 1346.4 493.2 1341.6 499.2C1330.8 511.2 1320 546 1318.8 561.6C1317.6 578.4 1323.6 583.2 1333.2 590.4C1341.6 580.8 1346.4 565.2 1350 554.4C1356 537.6 1364.4 525.6 1369.2 508.8C1376.4 478.8 1389.6 430.8 1393.2 398.4C1395.6 370.8 1398 340.8 1400.4 312C1401.6 290.4 1400.4 256.8 1410 237.6C1412.4 234 1429.2 214.8 1431.6 213.6C1441.2 214.8 1447.2 250.8 1444.8 260.4ZM1143.6 583.2C1138.8 609.6 1129.2 628.8 1098 631.2C1074 632.4 1064.4 621.6 1054.8 601.2C1050 590.4 1047.6 579.6 1046.4 568.8C1036.8 586.8 1034.4 608.4 1021.2 625.2C999.599 650.4 979.199 630 974.399 604.8C970.799 586.8 969.599 572.4 971.999 554.4C975.599 529.2 980.399 501.6 993.599 480C1004.4 462 1015.2 463.2 1033.2 471.6C1038 474 1040.4 472.8 1042.8 477.6C1042.8 476.4 1044 476.4 1044 475.2C1052.4 481.2 1053.6 495.6 1046.4 501.6C1042.8 505.2 1034.4 505.2 1030.8 508.8C1020 517.2 1015.2 535.2 1010.4 548.4C1006.8 560.4 1003.2 577.2 1003.2 590.4C1018.8 562.8 1016.4 524.4 1052.4 520.8C1074 518.4 1076.4 526.8 1080 546C1083.6 559.2 1082.4 573.6 1087.2 586.8C1090.8 597.6 1089.6 598.8 1099.2 597.6C1110 597.6 1116 590.4 1123.2 584.4C1130.4 576 1147.2 561.6 1143.6 583.2ZM1002 589.2C1002 591.6 1002 589.2 1002 589.2V589.2ZM970.799 234C964.799 278.4 953.999 324 946.799 364.8C937.199 423.6 941.999 489.6 940.799 550.8C940.799 562.8 940.799 628.8 922.799 626.4V632.4C896.399 620.4 903.599 544.8 905.999 522C908.399 484.8 907.199 448.8 908.399 412.8C909.599 382.8 913.199 350.4 915.599 322.8C917.999 296.4 921.599 268.8 928.799 242.4C932.399 229.2 933.599 213.6 939.599 199.2C945.599 186 945.599 187.2 955.199 198C961.199 205.2 965.999 214.8 968.399 223.2C970.799 228 970.799 229.2 970.799 234ZM872.399 318C872.399 357.6 869.999 398.4 868.799 439.2V492C868.799 508.8 867.599 524.4 867.599 538.8C867.599 554.4 866.399 571.2 866.399 582C866.399 592.8 871.199 613.2 866.399 625.2C856.799 646.8 842.399 622.8 838.799 607.2C835.199 592.8 835.199 576 835.199 561.6C832.799 523.2 836.399 476.4 836.399 435.6C836.399 396 832.799 357.6 833.999 320.4C835.199 296.4 837.599 273.6 839.999 248.4C841.199 235.2 839.999 218.4 845.999 208.8C854.399 193.2 859.199 204 863.999 214.8C873.599 235.2 871.199 255.6 872.399 279.6C873.599 291.6 875.999 307.2 872.399 318ZM787.199 514.8C783.599 524.4 778.799 534 783.599 542.4C777.599 547.2 776.399 576 778.799 579.6C769.199 588 777.599 616.8 759.599 615.6C745.199 614.4 743.999 568.8 742.799 556.8C741.599 542.4 745.199 470.4 760.799 470.4C775.199 470.4 790.799 504 787.199 514.8ZM707.999 538.8C706.799 562.8 706.799 582 704.399 604.8C703.199 615.6 700.799 632.4 686.399 624C680.399 620.4 676.799 602.4 675.599 597.6C673.199 582 675.599 565.2 673.199 548.4C664.799 562.8 662.399 586.8 653.999 604.8C647.999 618 643.199 625.2 633.599 612C626.399 603.6 625.199 588 622.799 579.6C620.399 568.8 619.199 556.8 619.199 544.8C608.399 566.4 603.599 596.4 590.399 619.2C581.999 632.4 583.199 627.6 569.999 627.6C569.999 619.2 565.199 608.4 562.799 602.4C559.199 589.2 556.799 574.8 557.999 558C559.199 542.4 562.799 524.4 566.399 508.8C568.799 498 569.999 469.2 585.599 476.4C584.399 477.6 583.199 477.6 581.999 478.8C589.199 484.8 596.399 508.8 597.599 510C603.599 512.4 608.399 502.8 611.999 500.4C622.799 494.4 633.599 495.6 640.799 501.6C646.799 506.4 655.199 520.8 655.199 532.8C665.999 529.2 667.199 512.4 676.799 507.6C692.399 498 707.999 514.8 709.199 530.4C709.199 531.6 709.199 535.2 707.999 538.8ZM530.399 621.6C532.799 643.2 512.399 627.6 507.599 620.4C501.599 612 496.799 603.6 494.399 592.8C485.999 612 464.399 631.2 443.999 614.4C412.799 589.2 433.199 529.2 445.199 500.4C451.199 486 467.999 468 470.399 453.6C481.199 452.4 485.999 440.4 499.199 445.2C508.799 448.8 512.399 456 507.599 465.6C501.599 477.6 482.399 486 473.999 499.2C464.399 514.8 454.799 537.6 451.199 556.8C449.999 564 446.399 580.8 454.799 580.8C459.599 580.8 465.599 568.8 466.799 566.4C472.799 555.6 475.199 543.6 478.799 531.6C482.399 518.4 482.399 501.6 489.599 494.4C502.799 480 515.999 487.2 517.199 505.2C518.399 524.4 515.999 543.6 515.999 562.8C515.999 582 520.799 595.2 526.799 610.8C529.199 615.6 530.399 620.4 530.399 621.6ZM415.199 458.4C418.799 472.8 380.399 476.4 368.399 482.4C357.599 488.4 346.799 496.8 339.599 506.4C328.799 522 301.199 566.4 326.399 579.6C333.599 584.4 349.199 583.2 352.799 574.8C361.199 580.8 375.599 567.6 385.199 562.8C407.999 552 423.599 573.6 406.799 596.4C392.399 615.6 358.799 627.6 334.799 624C249.599 613.2 291.599 500.4 328.799 459.6C337.199 451.2 356.399 438 371.999 433.2C389.999 427.2 424.799 426 415.199 458.4ZM400.799 286.8C398.399 288 392.399 298.8 387.599 292.8C381.599 300 349.199 301.2 337.199 304.8C320.399 308.4 302.399 310.8 283.199 313.2C268.799 315.6 253.199 318 239.999 319.2C218.399 321.6 194.399 314.4 172.799 318C173.999 310.8 161.999 310.8 160.799 302.4C161.999 302.4 164.399 301.2 165.599 301.2C164.399 297.6 159.599 300 159.599 296.4C208.799 296.4 260.399 294 314.399 285.6C323.999 284.4 358.799 274.8 341.999 264C335.999 260.4 319.199 260.4 313.199 260.4C292.799 260.4 268.799 261.6 249.599 265.2C230.399 268.8 209.999 272.4 190.799 279.6C184.799 282 177.599 285.6 170.399 288C161.999 291.6 161.999 292.8 155.999 296.4C154.799 297.6 149.999 294 148.799 295.2C146.399 297.6 145.199 304.8 142.799 307.2C139.199 313.2 136.799 320.4 135.599 326.4C113.999 379.2 113.999 432 113.999 486C113.999 525.6 117.599 562.8 125.999 606C131.999 640.8 154.799 684 149.999 717.6C143.999 715.2 140.399 690 137.999 685.2C134.399 672 129.599 656.4 125.999 643.2C118.799 618 113.999 591.6 109.199 564C100.799 502.8 99.5987 435.6 109.199 372C112.799 350.4 141.599 292.8 103.199 292.8C103.199 284.4 109.199 272.4 107.999 262.8C95.9987 262.8 95.9987 252 97.1987 242.4C111.599 242.4 94.7987 220.8 100.799 208.8C100.799 206.4 107.999 204 109.199 201.6C112.799 196.8 110.399 184.8 119.999 184.8C119.999 198 115.199 213.6 116.399 226.8C122.399 224.4 127.199 206.4 131.999 201.6C140.399 192 142.799 192 148.799 181.2C161.999 154.8 166.799 124.8 179.999 97.1997C194.399 65.9997 225.599 4.79972 260.399 -0.00027734C308.399 -6.00028 275.999 47.9997 263.999 67.1997C263.999 63.5997 262.799 62.3997 259.199 62.3997C257.999 67.1997 251.999 71.9997 248.399 76.7997C245.999 65.9997 272.399 40.7997 265.199 28.7997C259.199 33.5997 247.199 34.7997 241.199 40.7997C235.199 45.5997 230.399 53.9997 225.599 58.7997C214.799 75.5997 212.399 85.1997 203.999 102C184.799 145.2 167.999 184.8 160.799 234C172.799 232.8 203.999 198 215.999 190.8C231.599 181.2 247.199 172.8 262.799 165.6C277.199 158.4 295.199 142.8 310.799 147.6C340.799 157.2 301.199 178.8 293.999 186C293.999 178.8 265.199 205.2 262.799 206.4C253.199 216 238.799 229.2 235.199 242.4C272.399 242.4 400.799 222 400.799 286.8ZM237.599 214.8C245.999 214.8 268.799 192 271.199 184.8C251.999 190.8 231.599 205.2 217.199 216C207.599 223.2 172.799 243.6 172.799 255.6C188.399 238.8 218.399 229.2 237.599 214.8Z" fill="black"></path>
    </g>
    <defs>
        <clipPath id="clip0">
            <rect width="2508" height="720" fill="white"></rect>
        </clipPath>
    </defs>
</svg>
